# xmcd CD database file
#
# Track frame offsets:
#	150
#	13142
#	24690
#	35033
#	47774
#	60216
#	71720
#	88566
#	101215
#	112270
#
# Disc length: 1759 seconds
#
# Revision: 0
# Processed by: cddbd v1.5.2PL0 Copyright (c) Steve Scherf et al.
# Submitted via: CDex 1.51
#
DISCID=8a06dd0a
DTITLE=Ray Charles - An Introduction To
DYEAR=2017
DGENRE=Blues
TTITLE0=I've Got A Woman - Ray Charles
TTITLE1=Hallelujah I Love Her So - Ray Charles
TTITLE2=Get On The Right Track Baby - Ray Charles
TTITLE3=Talkin' 'Bout You - Ray Charles
TTITLE4=Mary Ann - Ray Charles
TTITLE5=Lonely Avenue - Ray Charles
TTITLE6=Don't Let The Sun Catch You Cryin' - Ray Charles
TTITLE7=What Kind Of Man Are You - Ray Charles
TTITLE8=You Be My Baby - Ray Charles
TTITLE9=What'd I Say, Pts. 1 and 2 - Ray Charles
EXTD=YEAR: 2017
EXTT0=
EXTT1=
EXTT2=
EXTT3=
EXTT4=
EXTT5=
EXTT6=
EXTT7=
EXTT8=
EXTT9=
PLAYORDER=
